# xmcd
#
# Track frame offsets:
#	150
#	27725
#	52925
#	76880
#	101782
#	116607
#	142797
#	164402
#	192317
#	211005
#	241237
#
# Disc length: 3482 seconds
#
# Revision: 1
# Processed by: cddbd v1.5.2PL0 Copyright (c) Steve Scherf et al.
# Submitted via: EasyCDDAExtractor 15.3.0.1
#
DISCID=8d0d980b
DTITLE=Various Artist - VFC - Mo Ve Noi Xa Lam
DYEAR=1999
DGENRE=Vietnamese
TTITLE0=Ngoc Anh - Mo Ve Noi Xa Lam
TTITLE1=Thanh Lam - Cho Em Mot Ngay
TTITLE2=Bang Kieu - Mau Cua Lang Quen
TTITLE3=Hong nhung - Tinh 24
TTITLE4=Thanh Lam - Mat Troi Em Diu
TTITLE5=My Linh - Dau Phai Boi Mua Thu
TTITLE6=Minh Anh - Em Ve Tinh Khoi
TTITLE7=Ngoc Anh - Trong Anh Chop So Phan
TTITLE8=Thanh Lam - Thanh Lam
TTITLE9=Hong Nhung - Hoi Tho Mua Xuan
TTITLE10=Tam ca 3A - Ngon Lua Cao Nguyen
EXTD=
EXTT0=
EXTT1=
EXTT2=
EXTT3=
EXTT4=
EXTT5=
EXTT6=
EXTT7=
EXTT8=
EXTT9=
EXTT10=
PLAYORDER=
